<?xml version="1.0" encoding="UTF-8"?>
<svg id="a" data-name="Character" xmlns="http://www.w3.org/2000/svg" viewBox="0 0 1297.22 289.38">
  <defs>
    <style>
      .b {
        fill: #b76326;
      }

      .c {
        fill: #414042;
        stroke: #414042;
      }

      .c, .d, .e, .f, .g, .h, .i, .j, .k, .l, .m {
        stroke-miterlimit: 10;
      }

      .c, .d, .e, .f, .h, .k {
        stroke-width: .5px;
      }

      .d {
        fill: #ce6d29;
        stroke: #ce6d29;
      }

      .e {
        fill: #58595b;
      }

      .e, .k {
        stroke: #58595b;
      }

      .f {
        stroke: #6d6e71;
      }

      .f, .k {
        fill: #6d6e71;
      }

      .n {
        fill: #e31e26;
      }

      .g, .j {
        stroke-width: .75px;
      }

      .g, .l {
        fill: none;
      }

      .g, .l, .m {
        stroke: #b76326;
      }

      .h {
        stroke: #dbdad9;
      }

      .h, .j {
        fill: #dbdad9;
      }

      .i {
        fill: #040504;
        stroke: #040504;
      }

      .o {
        fill: #fff;
        font-family: KunstlerScript, 'Kunstler Script';
        font-size: 38px;
      }

      .p {
        fill: #921a1d;
      }

      .j {
        stroke: #7a787a;
      }

      .l, .m {
        stroke-width: 2px;
      }

      .m {
        fill: #231f20;
      }

      .q {
        fill: #7b7c7b;
      }
    </style>
  </defs>
  <g>
    <path class="k" d="M798.63,247.4c-.67-5.2-2.73-9.98-5.78-13.96-1.58-2.07-3.43-3.92-5.5-5.5-3.98-3.05-8.75-5.1-13.96-5.78-1.27-.17-2.57-.26-3.89-.26s-2.61,.09-3.88,.26c-5.21,.68-9.99,2.73-13.97,5.78-2.07,1.58-3.92,3.43-5.49,5.5-3.06,3.98-5.12,8.76-5.79,13.96-.18,1.27-.27,2.57-.27,3.89s.09,2.61,.26,3.88c.68,5.22,2.73,10,5.79,13.98,1.58,2.06,3.42,3.91,5.49,5.49,3.98,3.05,8.76,5.11,13.98,5.79,1.27,.17,2.56,.26,3.88,.26s2.62-.09,3.89-.26c5.21-.68,9.99-2.74,13.97-5.79,2.07-1.58,3.92-3.43,5.49-5.5,3.06-3.98,5.11-8.76,5.79-13.97,.17-1.27,.26-2.56,.26-3.88s-.09-2.62-.27-3.89Zm-45.74,15c-1.44-2.15-2.48-4.6-2.99-7.23h4.98c.34,1.32,.86,2.56,1.53,3.71l-3.52,3.52Zm1.99-15h-4.97c.51-2.63,1.55-5.08,2.98-7.23l3.53,3.53c-.67,1.14-1.19,2.39-1.54,3.7Zm10.74,23.5c-2.63-.51-5.08-1.55-7.23-3l3.52-3.52c1.15,.67,2.39,1.19,3.71,1.53v4.99Zm0-34.24c-1.32,.34-2.56,.87-3.71,1.54l-3.52-3.52c2.15-1.44,4.6-2.48,7.23-2.99v4.97Zm20.49,3.52c1.44,2.15,2.47,4.59,2.98,7.22h-4.96c-.34-1.32-.86-2.56-1.53-3.71l3.51-3.51Zm-12.72-8.49c2.63,.52,5.07,1.55,7.22,2.99l-3.52,3.52c-1.14-.68-2.39-1.2-3.7-1.54v-4.97Zm0,39.21v-4.99c1.32-.34,2.56-.86,3.71-1.53l3.52,3.52c-2.15,1.45-4.6,2.48-7.23,3Zm12.72-8.5l-3.51-3.51c.67-1.15,1.19-2.4,1.53-3.72h4.97c-.51,2.63-1.55,5.08-2.99,7.23Z"/>
    <path class="e" d="M811.71,221.55l-12.22,14.12s-.04,.04-.06,.06l-20.91,24.15c-4.78,5.53-13.26,5.53-18.04,0l-20.91-24.15s-.04-.04-.06-.06l-12.22-14.12h31.1l-8.21,9.48c-1.52,1.75-1.52,4.36,0,6.11l12.3,14.21c3.72,4.29,10.31,4.29,14.02,0l12.3-14.21c1.52-1.75,1.52-4.36,0-6.11l-8.2-9.48h31.1Z"/>
  </g>
  <g>
    <path class="k" d="M1195.44,248.05c-.67-5.2-2.73-9.98-5.78-13.96-1.58-2.07-3.43-3.92-5.5-5.5-3.98-3.05-8.75-5.1-13.96-5.78-1.27-.17-2.57-.26-3.89-.26s-2.61,.09-3.88,.26c-5.21,.68-9.99,2.73-13.97,5.78-2.07,1.58-3.92,3.43-5.49,5.5-3.06,3.98-5.12,8.76-5.79,13.96-.18,1.27-.27,2.57-.27,3.89s.09,2.61,.26,3.88c.68,5.22,2.73,10,5.79,13.98,1.58,2.06,3.42,3.91,5.49,5.49,3.98,3.05,8.76,5.11,13.98,5.79,1.27,.17,2.56,.26,3.88,.26s2.62-.09,3.89-.26c5.21-.68,9.99-2.74,13.97-5.79,2.07-1.58,3.92-3.43,5.49-5.5,3.06-3.98,5.11-8.76,5.79-13.97,.17-1.27,.26-2.56,.26-3.88s-.09-2.62-.27-3.89Zm-45.74,15c-1.44-2.15-2.48-4.6-2.99-7.23h4.98c.34,1.32,.86,2.56,1.53,3.71l-3.52,3.52Zm1.99-15h-4.97c.51-2.63,1.55-5.08,2.98-7.23l3.53,3.53c-.67,1.14-1.19,2.39-1.54,3.7Zm10.74,23.5c-2.63-.51-5.08-1.55-7.23-3l3.52-3.52c1.15,.67,2.39,1.19,3.71,1.53v4.99Zm0-34.24c-1.32,.34-2.56,.87-3.71,1.54l-3.52-3.52c2.15-1.44,4.6-2.48,7.23-2.99v4.97Zm20.49,3.52c1.44,2.15,2.47,4.59,2.98,7.22h-4.96c-.34-1.32-.86-2.56-1.53-3.71l3.51-3.51Zm-12.72-8.49c2.63,.52,5.07,1.55,7.22,2.99l-3.52,3.52c-1.14-.68-2.39-1.2-3.7-1.54v-4.97Zm0,39.21v-4.99c1.32-.34,2.56-.86,3.71-1.53l3.52,3.52c-2.15,1.45-4.6,2.48-7.23,3Zm12.72-8.5l-3.51-3.51c.67-1.15,1.19-2.4,1.53-3.72h4.97c-.51,2.63-1.55,5.08-2.99,7.23Z"/>
    <path class="e" d="M1208.52,222.2l-12.22,14.12s-.04,.04-.06,.06l-20.91,24.15c-4.78,5.53-13.26,5.53-18.04,0l-20.91-24.15s-.04-.04-.06-.06l-12.22-14.12h31.1l-8.21,9.48c-1.52,1.75-1.52,4.36,0,6.11l12.3,14.21c3.72,4.29,10.31,4.29,14.02,0l12.3-14.21c1.52-1.75,1.52-4.36,0-6.11l-8.2-9.48h31.1Z"/>
  </g>
  <rect class="f" x="686.44" y="214.74" width="563.57" height="6.81"/>
  <path class="c" d="M676.06,192.1v35.07h10.38v-12.43h17.04v31.92h-9.72v7.57h548.59v-7.57h-9.7v-31.92h17.36v12.43h9.36v-35.07H676.06Zm32.7,22.64h156.91v31.92h-156.91v-31.92Zm162.19,0h191.83v31.92h-191.83v-31.92Zm356.42,31.92h-159.31v-31.92h159.31v31.92Z"/>
  <path class="d" d="M1253.95,192.1H674.18V40.44h588.77v47.23c2.81,16.09,15.32,35.49,15.32,35.49l-15.32,5.87v10.98s7.58,7.38,7.62,12.73c.04,4.37-7.62,8.71-7.62,8.71v21.64c0,4.97-4.03,9-9,9Z"/>
  <path class="h" d="M681.46,15.42h572.68c9.93,0,18,8.07,18,18h0c0,3.88-3.15,7.02-7.02,7.02H670.48c-3.87,0-7.02-3.15-7.02-7.02h0c0-9.94,8.07-18,18-18Z"/>
  <rect class="m" x="703.55" y="59.85" width="27.57" height="54.89" rx="5.23" ry="5.23"/>
  <rect class="m" x="778.76" y="59.85" width="27.57" height="54.89" rx="5.23" ry="5.23"/>
  <rect class="m" x="845.63" y="59.85" width="27.57" height="54.89" rx="5.23" ry="5.23"/>
  <rect class="m" x="920.44" y="59.85" width="27.57" height="54.89" rx="5.23" ry="5.23"/>
  <rect class="m" x="987.33" y="59.85" width="27.57" height="54.89" rx="5.23" ry="5.23"/>
  <rect class="m" x="1062.91" y="59.85" width="27.57" height="54.89" rx="5.23" ry="5.23"/>
  <rect class="m" x="1130.06" y="59.85" width="27.57" height="54.89" rx="5.23" ry="5.23"/>
  <rect class="l" x="684.65" y="61.12" width="10.21" height="52.09" rx="2.94" ry="2.94"/>
  <rect class="l" x="814.48" y="61.12" width="22.6" height="52.09" rx="2.94" ry="2.94"/>
  <rect class="l" x="956.5" y="61.25" width="22.6" height="52.09" rx="2.94" ry="2.94"/>
  <rect class="l" x="1098.97" y="61.25" width="22.6" height="52.09" rx="2.94" ry="2.94"/>
  <rect class="l" x="779.38" y="121.04" width="92.6" height="9.79" rx="2.6" ry="2.6"/>
  <rect class="l" x="921.89" y="121.04" width="92.6" height="9.79" rx="2.6" ry="2.6"/>
  <rect class="l" x="1064.21" y="121.04" width="92.11" height="9.79" rx="2.6" ry="2.6"/>
  <rect class="l" x="684.65" y="121.04" width="44.94" height="9.79" rx="2.6" ry="2.6"/>
  <rect class="l" x="779.35" y="43.57" width="92.6" height="9.79" rx="2.6" ry="2.6"/>
  <rect class="l" x="921.87" y="43.57" width="92.6" height="9.79" rx="2.6" ry="2.6"/>
  <rect class="l" x="1064.18" y="43.57" width="92.11" height="9.79" rx="2.6" ry="2.6"/>
  <rect class="l" x="684.63" y="43.57" width="44.94" height="9.79" rx="2.6" ry="2.6"/>
  <rect class="g" x="684.65" y="140.7" width="521.28" height="42.21" rx="3.11" ry="3.11"/>
  <g>
    <rect class="l" x="739.72" y="58.49" width="29.79" height="119.83"/>
    <rect class="m" x="742.27" y="61.12" width="24.85" height="52.09" rx="3.62" ry="3.62"/>
    <rect class="l" x="742.27" y="121.04" width="24.85" height="9.79" rx="3.53" ry="3.53"/>
    <rect class="b" x="758.61" y="115.83" width="9.36" height="3.11" rx=".76" ry=".76"/>
  </g>
  <g>
    <rect class="l" x="881.78" y="58.42" width="29.79" height="119.83"/>
    <rect class="m" x="884.33" y="61.06" width="24.85" height="52.09" rx="3.62" ry="3.62"/>
    <rect class="l" x="884.33" y="120.98" width="24.85" height="9.79" rx="3.53" ry="3.53"/>
    <rect class="b" x="900.67" y="115.76" width="9.36" height="3.11" rx=".76" ry=".76"/>
  </g>
  <g>
    <rect class="l" x="1024.01" y="58.4" width="29.79" height="119.83"/>
    <rect class="m" x="1026.57" y="61.04" width="24.85" height="52.09" rx="3.62" ry="3.62"/>
    <rect class="l" x="1026.57" y="120.95" width="24.85" height="9.79" rx="3.53" ry="3.53"/>
    <rect class="b" x="1042.91" y="115.74" width="9.36" height="3.11" rx=".76" ry=".76"/>
  </g>
  <g>
    <rect class="l" x="1166.31" y="58.4" width="29.79" height="119.83"/>
    <rect class="m" x="1168.87" y="61.04" width="24.85" height="52.09" rx="3.62" ry="3.62"/>
    <rect class="l" x="1168.87" y="120.95" width="24.85" height="9.79" rx="3.53" ry="3.53"/>
    <rect class="b" x="1185.21" y="115.74" width="9.36" height="3.11" rx=".76" ry=".76"/>
  </g>
  <g>
    <path class="j" d="M1205.12,20.94h26.94c1.3,0,2.36,1.06,2.36,2.36v4.28h-31.66v-4.28c0-1.3,1.06-2.36,2.36-2.36Z"/>
    <path class="j" d="M1213.55,18.52h10.3c1.2,0,2.17,.97,2.17,2.17v6.89h-14.64v-6.89c0-1.2,.97-2.17,2.17-2.17Z"/>
  </g>
  <g>
    <path class="j" d="M1132.42,20.94h26.94c1.3,0,2.36,1.06,2.36,2.36v4.28h-31.66v-4.28c0-1.3,1.06-2.36,2.36-2.36Z"/>
    <path class="j" d="M1140.84,18.52h10.3c1.2,0,2.17,.97,2.17,2.17v6.89h-14.64v-6.89c0-1.2,.97-2.17,2.17-2.17Z"/>
  </g>
  <g>
    <path class="j" d="M1063.23,20.94h26.94c1.3,0,2.36,1.06,2.36,2.36v4.28h-31.66v-4.28c0-1.3,1.06-2.36,2.36-2.36Z"/>
    <path class="j" d="M1071.65,18.52h10.3c1.2,0,2.17,.97,2.17,2.17v6.89h-14.64v-6.89c0-1.2,.97-2.17,2.17-2.17Z"/>
  </g>
  <g>
    <path class="j" d="M987.65,20.94h26.94c1.3,0,2.36,1.06,2.36,2.36v4.28h-31.66v-4.28c0-1.3,1.06-2.36,2.36-2.36Z"/>
    <path class="j" d="M996.08,18.52h10.3c1.2,0,2.17,.97,2.17,2.17v6.89h-14.64v-6.89c0-1.2,.97-2.17,2.17-2.17Z"/>
  </g>
  <g>
    <path class="j" d="M920.76,20.94h26.94c1.3,0,2.36,1.06,2.36,2.36v4.28h-31.66v-4.28c0-1.3,1.06-2.36,2.36-2.36Z"/>
    <path class="j" d="M929.18,18.52h10.3c1.2,0,2.17,.97,2.17,2.17v6.89h-14.64v-6.89c0-1.2,.97-2.17,2.17-2.17Z"/>
  </g>
  <g>
    <path class="j" d="M845.95,20.94h26.94c1.3,0,2.36,1.06,2.36,2.36v4.28h-31.66v-4.28c0-1.3,1.06-2.36,2.36-2.36Z"/>
    <path class="j" d="M854.38,18.52h10.3c1.2,0,2.17,.97,2.17,2.17v6.89h-14.64v-6.89c0-1.2,.97-2.17,2.17-2.17Z"/>
  </g>
  <g>
    <path class="j" d="M779.08,20.94h26.94c1.3,0,2.36,1.06,2.36,2.36v4.28h-31.66v-4.28c0-1.3,1.06-2.36,2.36-2.36Z"/>
    <path class="j" d="M787.5,18.52h10.3c1.2,0,2.17,.97,2.17,2.17v6.89h-14.64v-6.89c0-1.2,.97-2.17,2.17-2.17Z"/>
  </g>
  <g>
    <path class="j" d="M703.87,20.94h26.94c1.3,0,2.36,1.06,2.36,2.36v4.28h-31.66v-4.28c0-1.3,1.06-2.36,2.36-2.36Z"/>
    <path class="j" d="M712.29,18.52h10.3c1.2,0,2.17,.97,2.17,2.17v6.89h-14.64v-6.89c0-1.2,.97-2.17,2.17-2.17Z"/>
  </g>
  <g>
    <rect class="q" x="1274.35" y="206.49" width="5.53" height="6.77"/>
    <path class="n" d="M1259.37,200.02h7.78c3.97,0,7.2,3.23,7.2,7.2v4.92c0,3.97-3.23,7.2-7.2,7.2h-7.78v-19.32h0Z"/>
    <path class="i" d="M1284.57,221.55c-.67,1.22-4.68,2.98-4.68,2.98v-30.04s4.01,1.76,4.68,2.98c2.9,5.28,2.9,18.81,0,24.09Z"/>
    <rect class="p" x="1259.37" y="197.04" width="3.07" height="25.16"/>
  </g>
  <text class="o" transform="translate(930.68 173.47)"><tspan x="0" y="0">Annie</tspan></text>
  <g>
    <rect class="q" x="655.39" y="206.49" width="5.53" height="6.77" transform="translate(1316.32 419.74) rotate(180)"/>
    <path class="n" d="M660.93,200.02h7.78c3.97,0,7.2,3.23,7.2,7.2v4.92c0,3.97-3.23,7.2-7.2,7.2h-7.78v-19.32h0Z" transform="translate(1336.84 419.36) rotate(180)"/>
    <path class="i" d="M650.71,221.55c.67,1.22,4.68,2.98,4.68,2.98v-30.04s-4.01,1.76-4.68,2.98c-2.9,5.28-2.9,18.81,0,24.09Z"/>
    <rect class="p" x="672.84" y="197.04" width="3.07" height="25.16" transform="translate(1348.75 419.24) rotate(180)"/>
  </g>
</svg>