<?xml version="1.0" encoding="UTF-8"?>
<svg id="a" data-name="Character" xmlns="http://www.w3.org/2000/svg" viewBox="0 0 1297.22 289.38">
  <defs>
    <style>
      .b {
        fill: #b76326;
      }

      .c {
        fill: #414042;
        stroke: #414042;
      }

      .c, .d, .e, .f, .g, .h, .i, .j, .k, .l, .m {
        stroke-miterlimit: 10;
      }

      .c, .d, .e, .f, .h, .k {
        stroke-width: .5px;
      }

      .d {
        fill: #ce6d29;
        stroke: #ce6d29;
      }

      .e {
        fill: #58595b;
      }

      .e, .k {
        stroke: #58595b;
      }

      .f {
        stroke: #6d6e71;
      }

      .f, .k {
        fill: #6d6e71;
      }

      .n {
        fill: #e31e26;
      }

      .g, .j {
        stroke-width: .75px;
      }

      .g, .l {
        fill: none;
      }

      .g, .l, .m {
        stroke: #b76326;
      }

      .h {
        stroke: #dbdad9;
      }

      .h, .j {
        fill: #dbdad9;
      }

      .i {
        fill: #040504;
        stroke: #040504;
      }

      .o {
        fill: #fff;
        font-family: KunstlerScript, 'Kunstler Script';
        font-size: 38px;
      }

      .p {
        fill: #921a1d;
      }

      .j {
        stroke: #7a787a;
      }

      .l, .m {
        stroke-width: 2px;
      }

      .m {
        fill: #231f20;
      }

      .q {
        fill: #7b7c7b;
      }
    </style>
  </defs>
  <g>
    <path class="k" d="M1136.65,247.4c.67-5.2,2.73-9.98,5.78-13.96,1.58-2.07,3.43-3.92,5.5-5.5,3.98-3.05,8.75-5.1,13.96-5.78,1.27-.17,2.57-.26,3.89-.26s2.61,.09,3.88,.26c5.21,.68,9.99,2.73,13.97,5.78,2.07,1.58,3.92,3.43,5.49,5.5,3.06,3.98,5.12,8.76,5.79,13.96,.18,1.27,.27,2.57,.27,3.89s-.09,2.61-.26,3.88c-.68,5.22-2.73,10-5.79,13.98-1.58,2.06-3.42,3.91-5.49,5.49-3.98,3.05-8.76,5.11-13.98,5.79-1.27,.17-2.56,.26-3.88,.26s-2.62-.09-3.89-.26c-5.21-.68-9.99-2.74-13.97-5.79-2.07-1.58-3.92-3.43-5.49-5.5-3.06-3.98-5.11-8.76-5.79-13.97-.17-1.27-.26-2.56-.26-3.88s.09-2.62,.27-3.89Zm45.74,15c1.44-2.15,2.48-4.6,2.99-7.23h-4.98c-.34,1.32-.86,2.56-1.53,3.71l3.52,3.52Zm-1.99-15h4.97c-.51-2.63-1.55-5.08-2.98-7.23l-3.53,3.53c.67,1.14,1.19,2.39,1.54,3.7Zm-10.74,23.5c2.63-.51,5.08-1.55,7.23-3l-3.52-3.52c-1.15,.67-2.39,1.19-3.71,1.53v4.99Zm0-34.24c1.32,.34,2.56,.87,3.71,1.54l3.52-3.52c-2.15-1.44-4.6-2.48-7.23-2.99v4.97Zm-20.49,3.52c-1.44,2.15-2.47,4.59-2.98,7.22h4.96c.34-1.32,.86-2.56,1.53-3.71l-3.51-3.51Zm12.72-8.49c-2.63,.52-5.07,1.55-7.22,2.99l3.52,3.52c1.14-.68,2.39-1.2,3.7-1.54v-4.97Zm0,39.21v-4.99c-1.32-.34-2.56-.86-3.71-1.53l-3.52,3.52c2.15,1.45,4.6,2.48,7.23,3Zm-12.72-8.5l3.51-3.51c-.67-1.15-1.19-2.4-1.53-3.72h-4.97c.51,2.63,1.55,5.08,2.99,7.23Z"/>
    <path class="e" d="M1123.57,221.55l12.22,14.12s.04,.04,.06,.06l20.91,24.15c4.78,5.53,13.26,5.53,18.04,0l20.91-24.15s.04-.04,.06-.06l12.22-14.12h-31.1l8.21,9.48c1.52,1.75,1.52,4.36,0,6.11l-12.3,14.21c-3.72,4.29-10.31,4.29-14.02,0l-12.3-14.21c-1.52-1.75-1.52-4.36,0-6.11l8.2-9.48h-31.1Z"/>
  </g>
  <g>
    <path class="k" d="M739.84,248.05c.67-5.2,2.73-9.98,5.78-13.96,1.58-2.07,3.43-3.92,5.5-5.5,3.98-3.05,8.75-5.1,13.96-5.78,1.27-.17,2.57-.26,3.89-.26s2.61,.09,3.88,.26c5.21,.68,9.99,2.73,13.97,5.78,2.07,1.58,3.92,3.43,5.49,5.5,3.06,3.98,5.12,8.76,5.79,13.96,.18,1.27,.27,2.57,.27,3.89s-.09,2.61-.26,3.88c-.68,5.22-2.73,10-5.79,13.98-1.58,2.06-3.42,3.91-5.49,5.49-3.98,3.05-8.76,5.11-13.98,5.79-1.27,.17-2.56,.26-3.88,.26s-2.62-.09-3.89-.26c-5.21-.68-9.99-2.74-13.97-5.79-2.07-1.58-3.92-3.43-5.49-5.5-3.06-3.98-5.11-8.76-5.79-13.97-.17-1.27-.26-2.56-.26-3.88s.09-2.62,.27-3.89Zm45.74,15c1.44-2.15,2.48-4.6,2.99-7.23h-4.98c-.34,1.32-.86,2.56-1.53,3.71l3.52,3.52Zm-1.99-15h4.97c-.51-2.63-1.55-5.08-2.98-7.23l-3.53,3.53c.67,1.14,1.19,2.39,1.54,3.7Zm-10.74,23.5c2.63-.51,5.08-1.55,7.23-3l-3.52-3.52c-1.15,.67-2.39,1.19-3.71,1.53v4.99Zm0-34.24c1.32,.34,2.56,.87,3.71,1.54l3.52-3.52c-2.15-1.44-4.6-2.48-7.23-2.99v4.97Zm-20.49,3.52c-1.44,2.15-2.47,4.59-2.98,7.22h4.96c.34-1.32,.86-2.56,1.53-3.71l-3.51-3.51Zm12.72-8.49c-2.63,.52-5.07,1.55-7.22,2.99l3.52,3.52c1.14-.68,2.39-1.2,3.7-1.54v-4.97Zm0,39.21v-4.99c-1.32-.34-2.56-.86-3.71-1.53l-3.52,3.52c2.15,1.45,4.6,2.48,7.23,3Zm-12.72-8.5l3.51-3.51c-.67-1.15-1.19-2.4-1.53-3.72h-4.97c.51,2.63,1.55,5.08,2.99,7.23Z"/>
    <path class="e" d="M726.76,222.2l12.22,14.12s.04,.04,.06,.06l20.91,24.15c4.78,5.53,13.26,5.53,18.04,0l20.91-24.15s.04-.04,.06-.06l12.22-14.12h-31.1l8.21,9.48c1.52,1.75,1.52,4.36,0,6.11l-12.3,14.21c-3.72,4.29-10.31,4.29-14.02,0l-12.3-14.21c-1.52-1.75-1.52-4.36,0-6.11l8.2-9.48h-31.1Z"/>
  </g>
  <rect class="f" x="685.27" y="214.74" width="563.57" height="6.81" transform="translate(1934.11 436.29) rotate(180)"/>
  <path class="c" d="M1259.22,192.1v35.07h-10.38v-12.43h-17.04v31.92h9.72v7.57H692.93v-7.57h9.7v-31.92h-17.36v12.43h-9.36v-35.07h583.31Zm-32.7,22.64h-156.91v31.92h156.91v-31.92Zm-162.19,0h-191.83v31.92h191.83v-31.92Zm-356.42,31.92h159.31v-31.92h-159.31v31.92Z"/>
  <path class="d" d="M681.33,192.1h579.77V40.44H672.33v47.23c-2.81,16.09-15.32,35.49-15.32,35.49l15.32,5.87v10.98s-7.58,7.38-7.62,12.73c-.04,4.37,7.62,8.71,7.62,8.71v21.64c0,4.97,4.03,9,9,9Z"/>
  <path class="h" d="M670.16,15.42h594.64c3.87,0,7.02,3.15,7.02,7.02h0c0,9.94-8.07,18-18,18H681.14c-9.93,0-18-8.07-18-18h0c0-3.88,3.15-7.02,7.02-7.02Z" transform="translate(1934.96 55.87) rotate(-180)"/>
  <rect class="m" x="1204.16" y="59.85" width="27.57" height="54.89" rx="5.23" ry="5.23" transform="translate(2435.9 174.59) rotate(180)"/>
  <rect class="m" x="1128.95" y="59.85" width="27.57" height="54.89" rx="5.23" ry="5.23" transform="translate(2285.47 174.59) rotate(180)"/>
  <rect class="m" x="1062.08" y="59.85" width="27.57" height="54.89" rx="5.23" ry="5.23" transform="translate(2151.73 174.59) rotate(180)"/>
  <rect class="m" x="987.27" y="59.85" width="27.57" height="54.89" rx="5.23" ry="5.23" transform="translate(2002.11 174.59) rotate(180)"/>
  <rect class="m" x="920.37" y="59.85" width="27.57" height="54.89" rx="5.23" ry="5.23" transform="translate(1868.32 174.59) rotate(180)"/>
  <rect class="m" x="844.8" y="59.85" width="27.57" height="54.89" rx="5.23" ry="5.23" transform="translate(1717.17 174.59) rotate(180)"/>
  <rect class="m" x="777.65" y="59.85" width="27.57" height="54.89" rx="5.23" ry="5.23" transform="translate(1582.87 174.59) rotate(180)"/>
  <rect class="l" x="1240.42" y="61.12" width="10.21" height="52.09" rx="2.94" ry="2.94" transform="translate(2491.04 174.33) rotate(180)"/>
  <rect class="l" x="1098.2" y="61.12" width="22.6" height="52.09" rx="2.94" ry="2.94" transform="translate(2219 174.33) rotate(180)"/>
  <rect class="l" x="956.18" y="61.25" width="22.6" height="52.09" rx="2.94" ry="2.94" transform="translate(1934.96 174.59) rotate(180)"/>
  <rect class="l" x="813.71" y="61.25" width="22.6" height="52.09" rx="2.94" ry="2.94" transform="translate(1650.02 174.59) rotate(180)"/>
  <rect class="l" x="1063.31" y="121.04" width="92.6" height="9.79" rx="2.6" ry="2.6" transform="translate(2219.22 251.87) rotate(180)"/>
  <rect class="l" x="920.8" y="121.04" width="92.6" height="9.79" rx="2.6" ry="2.6" transform="translate(1934.19 251.87) rotate(180)"/>
  <rect class="l" x="778.97" y="121.04" width="92.11" height="9.79" rx="2.6" ry="2.6" transform="translate(1650.04 251.87) rotate(180)"/>
  <rect class="l" x="1205.69" y="121.04" width="44.94" height="9.79" rx="2.6" ry="2.6" transform="translate(2456.32 251.87) rotate(180)"/>
  <rect class="l" x="1063.33" y="43.57" width="92.6" height="9.79" rx="2.6" ry="2.6" transform="translate(2219.26 96.93) rotate(180)"/>
  <rect class="l" x="920.82" y="43.57" width="92.6" height="9.79" rx="2.6" ry="2.6" transform="translate(1934.24 96.93) rotate(180)"/>
  <rect class="l" x="778.99" y="43.57" width="92.11" height="9.79" rx="2.6" ry="2.6" transform="translate(1650.09 96.93) rotate(180)"/>
  <rect class="l" x="1205.71" y="43.57" width="44.94" height="9.79" rx="2.6" ry="2.6" transform="translate(2456.36 96.93) rotate(180)"/>
  <rect class="g" x="729.35" y="140.7" width="521.28" height="42.21" rx="3.11" ry="3.11" transform="translate(1979.98 323.61) rotate(180)"/>
  <g>
    <rect class="l" x="1165.78" y="58.49" width="29.79" height="119.83" transform="translate(2361.34 236.8) rotate(180)"/>
    <rect class="m" x="1168.16" y="61.12" width="24.85" height="52.09" rx="3.62" ry="3.62" transform="translate(2361.17 174.33) rotate(180)"/>
    <rect class="l" x="1168.16" y="121.04" width="24.85" height="9.79" rx="3.53" ry="3.53" transform="translate(2361.17 251.87) rotate(180)"/>
    <rect class="b" x="1167.31" y="115.83" width="9.36" height="3.11" rx=".76" ry=".76" transform="translate(2343.98 234.76) rotate(180)"/>
  </g>
  <g>
    <rect class="l" x="1023.71" y="58.42" width="29.79" height="119.83" transform="translate(2077.22 236.67) rotate(180)"/>
    <rect class="m" x="1026.1" y="61.06" width="24.85" height="52.09" rx="3.62" ry="3.62" transform="translate(2077.04 174.21) rotate(180)"/>
    <rect class="l" x="1026.1" y="120.98" width="24.85" height="9.79" rx="3.53" ry="3.53" transform="translate(2077.04 251.74) rotate(180)"/>
    <rect class="b" x="1025.25" y="115.76" width="9.36" height="3.11" rx=".76" ry=".76" transform="translate(2059.85 234.63) rotate(180)"/>
  </g>
  <g>
    <rect class="l" x="881.48" y="58.4" width="29.79" height="119.83" transform="translate(1792.75 236.63) rotate(180)"/>
    <rect class="m" x="883.86" y="61.04" width="24.85" height="52.09" rx="3.62" ry="3.62" transform="translate(1792.58 174.16) rotate(180)"/>
    <rect class="l" x="883.86" y="120.95" width="24.85" height="9.79" rx="3.53" ry="3.53" transform="translate(1792.58 251.7) rotate(180)"/>
    <rect class="b" x="883.01" y="115.74" width="9.36" height="3.11" rx=".76" ry=".76" transform="translate(1775.39 234.59) rotate(180)"/>
  </g>
  <g>
    <rect class="l" x="739.18" y="58.4" width="29.79" height="119.83" transform="translate(1508.15 236.63) rotate(180)"/>
    <rect class="m" x="741.56" y="61.04" width="24.85" height="52.09" rx="3.62" ry="3.62" transform="translate(1507.98 174.16) rotate(180)"/>
    <rect class="l" x="741.56" y="120.95" width="24.85" height="9.79" rx="3.53" ry="3.53" transform="translate(1507.98 251.7) rotate(180)"/>
    <rect class="b" x="740.71" y="115.74" width="9.36" height="3.11" rx=".76" ry=".76" transform="translate(1490.79 234.59) rotate(180)"/>
  </g>
  <g>
    <path class="j" d="M700.86,20.94h31.66v4.28c0,1.3-1.06,2.36-2.36,2.36h-26.94c-1.3,0-2.36-1.06-2.36-2.36v-4.28h0Z" transform="translate(1433.39 48.53) rotate(180)"/>
    <path class="j" d="M709.27,18.52h14.64v6.89c0,1.2-.97,2.17-2.17,2.17h-10.3c-1.2,0-2.17-.97-2.17-2.17v-6.89h0Z" transform="translate(1433.17 46.1) rotate(180)"/>
  </g>
  <g>
    <path class="j" d="M773.56,20.94h31.66v4.28c0,1.3-1.06,2.36-2.36,2.36h-26.94c-1.3,0-2.36-1.06-2.36-2.36v-4.28h0Z" transform="translate(1578.79 48.53) rotate(180)"/>
    <path class="j" d="M781.97,18.52h14.64v6.89c0,1.2-.97,2.17-2.17,2.17h-10.3c-1.2,0-2.17-.97-2.17-2.17v-6.89h0Z" transform="translate(1578.58 46.1) rotate(180)"/>
  </g>
  <g>
    <path class="j" d="M842.76,20.94h31.66v4.28c0,1.3-1.06,2.36-2.36,2.36h-26.94c-1.3,0-2.36-1.06-2.36-2.36v-4.28h0Z" transform="translate(1717.17 48.53) rotate(180)"/>
    <path class="j" d="M851.16,18.52h14.64v6.89c0,1.2-.97,2.17-2.17,2.17h-10.3c-1.2,0-2.17-.97-2.17-2.17v-6.89h0Z" transform="translate(1716.96 46.1) rotate(180)"/>
  </g>
  <g>
    <path class="j" d="M918.33,20.94h31.66v4.28c0,1.3-1.06,2.36-2.36,2.36h-26.94c-1.3,0-2.36-1.06-2.36-2.36v-4.28h0Z" transform="translate(1868.32 48.53) rotate(180)"/>
    <path class="j" d="M926.74,18.52h14.64v6.89c0,1.2-.97,2.17-2.17,2.17h-10.3c-1.2,0-2.17-.97-2.17-2.17v-6.89h0Z" transform="translate(1868.11 46.1) rotate(180)"/>
  </g>
  <g>
    <path class="j" d="M985.22,20.94h31.66v4.28c0,1.3-1.06,2.36-2.36,2.36h-26.94c-1.3,0-2.36-1.06-2.36-2.36v-4.28h0Z" transform="translate(2002.11 48.53) rotate(180)"/>
    <path class="j" d="M993.63,18.52h14.64v6.89c0,1.2-.97,2.17-2.17,2.17h-10.3c-1.2,0-2.17-.97-2.17-2.17v-6.89h0Z" transform="translate(2001.9 46.1) rotate(180)"/>
  </g>
  <g>
    <path class="j" d="M1060.03,20.94h31.66v4.28c0,1.3-1.06,2.36-2.36,2.36h-26.94c-1.3,0-2.36-1.06-2.36-2.36v-4.28h0Z" transform="translate(2151.73 48.53) rotate(180)"/>
    <path class="j" d="M1068.44,18.52h14.64v6.89c0,1.2-.97,2.17-2.17,2.17h-10.3c-1.2,0-2.17-.97-2.17-2.17v-6.89h0Z" transform="translate(2151.51 46.1) rotate(180)"/>
  </g>
  <g>
    <path class="j" d="M1126.91,20.94h31.66v4.28c0,1.3-1.06,2.36-2.36,2.36h-26.94c-1.3,0-2.36-1.06-2.36-2.36v-4.28h0Z" transform="translate(2285.47 48.53) rotate(180)"/>
    <path class="j" d="M1135.31,18.52h14.64v6.89c0,1.2-.97,2.17-2.17,2.17h-10.3c-1.2,0-2.17-.97-2.17-2.17v-6.89h0Z" transform="translate(2285.26 46.1) rotate(180)"/>
  </g>
  <g>
    <path class="j" d="M1202.12,20.94h31.66v4.28c0,1.3-1.06,2.36-2.36,2.36h-26.94c-1.3,0-2.36-1.06-2.36-2.36v-4.28h0Z" transform="translate(2435.9 48.53) rotate(180)"/>
    <path class="j" d="M1210.52,18.52h14.64v6.89c0,1.2-.97,2.17-2.17,2.17h-10.3c-1.2,0-2.17-.97-2.17-2.17v-6.89h0Z" transform="translate(2435.68 46.1) rotate(180)"/>
  </g>
  <g>
    <rect class="q" x="655.39" y="206.49" width="5.53" height="6.77" transform="translate(1316.32 419.74) rotate(180)"/>
    <path class="n" d="M660.93,200.02h7.78c3.97,0,7.2,3.23,7.2,7.2v4.92c0,3.97-3.23,7.2-7.2,7.2h-7.78v-19.32h0Z" transform="translate(1336.84 419.36) rotate(180)"/>
    <path class="i" d="M650.71,221.55c.67,1.22,4.68,2.98,4.68,2.98v-30.04s-4.01,1.76-4.68,2.98c-2.9,5.28-2.9,18.81,0,24.09Z"/>
    <rect class="p" x="672.84" y="197.04" width="3.07" height="25.16" transform="translate(1348.75 419.24) rotate(180)"/>
  </g>
  <text class="o" transform="translate(907.8 173.47)"><tspan x="0" y="0">Clarabel</tspan></text>
  <g>
    <rect class="q" x="1274.35" y="206.49" width="5.53" height="6.77"/>
    <path class="n" d="M1259.37,200.02h7.78c3.97,0,7.2,3.23,7.2,7.2v4.92c0,3.97-3.23,7.2-7.2,7.2h-7.78v-19.32h0Z"/>
    <path class="i" d="M1284.57,221.55c-.67,1.22-4.68,2.98-4.68,2.98v-30.04s4.01,1.76,4.68,2.98c2.9,5.28,2.9,18.81,0,24.09Z"/>
    <rect class="p" x="1259.37" y="197.04" width="3.07" height="25.16"/>
  </g>
</svg>