<?xml version="1.0" encoding="utf-8"?>
<!-- Generator: Adobe Illustrator 27.0.1, SVG Export Plug-In . SVG Version: 6.00 Build 0)  -->
<svg version="1.1" xmlns="http://www.w3.org/2000/svg" xmlns:xlink="http://www.w3.org/1999/xlink" x="0px" y="0px"
	 viewBox="0 0 720 720" style="enable-background:new 0 0 720 720;" xml:space="preserve">
<style type="text/css">
	.st0{display:none;}
	.st1{stroke:#000000;stroke-miterlimit:10;}
	.st2{fill:#16AFE6;stroke:#000000;stroke-miterlimit:10;}
	.st3{fill:#189CCD;stroke:#000000;stroke-miterlimit:10;}
	.st4{fill:none;stroke:#E44838;stroke-width:4;stroke-miterlimit:10;}
	.st5{fill:#D1D3D4;stroke:#000000;stroke-miterlimit:10;}
	.st6{fill:none;stroke:#EFCD46;stroke-width:4;stroke-miterlimit:10;}
	.st7{fill:#867778;stroke:#000000;stroke-miterlimit:10;}
	.st8{fill:#6E6162;stroke:#000000;stroke-miterlimit:10;}
	.st9{fill:#867778;stroke:#796B6C;stroke-miterlimit:10;}
	.st10{fill:#EFCD46;stroke:#E44838;stroke-width:4;stroke-miterlimit:10;}
	.st11{fill:#B2ACAE;stroke:#000000;stroke-miterlimit:10;}
	.st12{fill:#E44838;stroke:#000000;stroke-miterlimit:10;}
	.st13{fill:none;stroke:#E44838;stroke-miterlimit:10;}
</style>
<g id="Layer_1" class="st0">
</g>
<g id="Character">
	<path class="st1" d="M670.2,437.3v45.9l-134.9,18.9H135l-82.2-16.9v-48h370.6V360h70.1V252.1h52.3v-54.6c-2-0.1-3.6-1.7-3.6-3.7
		c0-1,0.4-2,1.1-2.6c0.6-0.6,1.5-1,2.5-1.1v-3.3c0-1.4,1.1-2.6,2.5-2.6h21.5c1.4,0,2.5,1.2,2.5,2.6v3.3c2,0.1,3.6,1.7,3.6,3.7
		c0,1-0.4,2-1.1,2.6c-0.6,0.7-1.5,1-2.5,1.1v54.6H610v116.6h-20.6v35.7H654v32.9H670.2z"/>
	<path class="st2" d="M493.9,373c-58-0.5-69.9,33.9-69.9,33.9l-0.7-46.9h70.1V252.1l-37.2-0.7l-0.8-51.1c0,0,0.8-11.6-21.5-11.6
		c-16.5,0-16.5,11.6-16.5,11.6l0.8,52.1l-141.5-1l0.1-51.1h-144v28.1l-76.6,0l6.6,20.7v172.7h88.4v-17.2l37.3-0.5v17.7h379.3
		C567.8,421.8,567.8,373.6,493.9,373z M251.9,208h16.6v65.4h-16.6V208z M131.9,272.1c-0.9,0.9-2.2,1.5-3.7,1.5H77.7
		c-2.8,0-5.2-2.3-5.2-5.2c0-1.4,0.6-2.7,1.5-3.7c0.9-0.9,2.2-1.5,3.6-1.5h50.6c2.9,0,5.2,2.3,5.2,5.2
		C133.4,269.9,132.8,271.2,131.9,272.1z M131.9,257.9c-0.9,0.9-2.2,1.5-3.7,1.5H77.7c-2.8,0-5.2-2.3-5.2-5.2c0-1.4,0.6-2.7,1.5-3.7
		c0.9-0.9,2.2-1.5,3.6-1.5h50.6c2.9,0,5.2,2.3,5.2,5.2C133.4,255.7,132.8,257,131.9,257.9z M131.9,243.7c-0.9,0.9-2.2,1.5-3.7,1.5
		H77.7c-2.8,0-5.2-2.3-5.2-5.2c0-1.4,0.6-2.7,1.5-3.7c0.9-0.9,2.2-1.5,3.6-1.5h50.6c2.9,0,5.2,2.3,5.2,5.2
		C133.4,241.5,132.8,242.8,131.9,243.7z M153.8,282.5v-9.2h-12.5V208h103.1v65.4h-54.1v9.2H153.8z"/>
	<g>
		<circle class="st2" cx="338.9" cy="485.2" r="59.3"/>
		<path class="st3" d="M389.2,485.2c0,27.8-22.5,50.3-50.3,50.3c-25.6,0-46.7-19-49.9-43.7l32.1-53.7c5.5-2.1,11.5-3.2,17.8-3.2
			C366.7,434.9,389.2,457.4,389.2,485.2z"/>
		<path class="st2" d="M368.2,499.4l-8,11.1c-1.2,1.7-3.5,2-5.1,0.9l-15.4-11c-0.8,0.1-1.7,0.2-2.6,0.2c-8.5,0-15.4-6.9-15.4-15.4
			c0-8.5,6.9-15.4,15.4-15.4c7.9,0,14.5,6,15.3,13.7l15,10.7C369,495.4,369.4,497.7,368.2,499.4z"/>
	</g>
	<rect x="68.6" y="282.5" class="st4" width="76.6" height="131.7"/>
	<polygon class="st1" points="714.9,458.6 714.9,474.2 710.3,474.2 710.3,470.3 704.5,470.3 704.5,462.5 710.3,462.5 710.3,458.6 	
		"/>
	<polygon class="st4" points="486,282.5 486,352.2 415.3,352.2 415.3,414.3 198.8,414.3 198.8,282.5 	"/>
	<rect x="126.3" y="187.6" class="st5" width="154.5" height="12.8"/>
	<rect x="251.9" y="208" class="st6" width="16.6" height="65.4"/>
	<polygon class="st6" points="244.5,208 244.5,273.3 190.4,273.3 190.4,282.5 153.8,282.5 153.8,273.3 141.3,273.3 141.3,208 	"/>
	<g>
		<circle class="st2" cx="173.5" cy="486.9" r="59.3"/>
		<path class="st3" d="M223.8,486.8c0,27.8-22.5,50.3-50.3,50.3c-25.6,0-46.7-19-49.9-43.7l32.1-53.7c5.5-2.1,11.5-3.2,17.8-3.2
			C201.3,436.5,223.8,459.1,223.8,486.8z"/>
		<path class="st2" d="M202.8,501l-8,11.1c-1.2,1.7-3.5,2-5.1,0.9l-15.4-11c-0.8,0.1-1.7,0.2-2.6,0.2c-8.5,0-15.4-6.9-15.4-15.4
			c0-8.5,6.9-15.4,15.4-15.4c7.9,0,14.5,6,15.3,13.7l15,10.7C203.6,497.1,204,499.4,202.8,501z"/>
	</g>
	<g>
		<circle class="st2" cx="498.8" cy="486.8" r="59.3"/>
		<path class="st3" d="M549.1,486.8c0,27.8-22.5,50.3-50.3,50.3c-25.6,0-46.7-19-49.9-43.7l32.1-53.7c5.5-2.1,11.5-3.2,17.8-3.2
			C526.6,436.5,549.1,459.1,549.1,486.8z"/>
		<path class="st2" d="M528.1,501l-8,11.1c-1.2,1.7-3.5,2-5.1,0.9l-15.4-11c-0.8,0.1-1.7,0.2-2.6,0.2c-8.5,0-15.4-6.9-15.4-15.4
			c0-8.5,6.9-15.4,15.4-15.4c7.9,0,14.5,6,15.3,13.7l15,10.7C528.9,497.1,529.3,499.4,528.1,501z"/>
	</g>
	<rect x="192.5" y="493.6" class="st7" width="324.9" height="17.1"/>
	<g>
		<path class="st8" d="M198.2,514.3h-11.4c-3.6,0-6.5-2.9-6.5-6.5v-11.4c0-3.6,2.9-6.5,6.5-6.5h11.4c3.6,0,6.5,2.9,6.5,6.5v11.4
			C204.6,511.4,201.7,514.3,198.2,514.3z"/>
		<circle class="st9" cx="192.5" cy="502.1" r="8.6"/>
	</g>
	<g>
		<path class="st8" d="M363.2,514.3h-11.4c-3.6,0-6.5-2.9-6.5-6.5v-11.4c0-3.6,2.9-6.5,6.5-6.5h11.4c3.6,0,6.5,2.9,6.5,6.5v11.4
			C369.6,511.4,366.7,514.3,363.2,514.3z"/>
		<circle class="st9" cx="357.5" cy="502.1" r="8.6"/>
	</g>
	<g>
		<path class="st8" d="M523,514.3h-11.4c-3.6,0-6.5-2.9-6.5-6.5v-11.4c0-3.6,2.9-6.5,6.5-6.5H523c3.6,0,6.5,2.9,6.5,6.5v11.4
			C529.5,511.4,526.6,514.3,523,514.3z"/>
		<circle class="st9" cx="517.4" cy="502.1" r="8.6"/>
	</g>
	<path class="st4" d="M493.9,414.5h61.3c0-19.2-27.7-35-61.3-35c-33.5,0-61.1,15.7-61.3,34.8L493.9,414.5z"/>
	<polygon class="st10" points="318.4,365.1 309.9,365.1 309.9,316.1 303.4,316.1 285.8,320.8 285.8,329 293.9,329 293.9,365.1 
		285.8,365.1 285.8,377.7 318.4,377.7 	"/>
	<path class="st11" d="M629.1,310.4c0,32.2-3.8,58.3-8.6,58.3H610V252.1h10.5C625.3,252.1,629.1,278.2,629.1,310.4z"/>
	<path class="st12" d="M704.5,460.6v12.3h-19.1v22.6h-15.3l0.2-9c0,0-14,4.4-29.3-21.6c-17.4-1.5-17.4-1.5-17.4-1.5l-1.5-19.9
		c0,0-3.6-6.1-32.2-6.1H52.7V491H37.9v-69.2h552c0,0,50.2-2.8,63.8,29.2c31.7,0,31.7,0,31.7,0v9.5H704.5z"/>
	<line class="st13" x1="279.7" y1="253.4" x2="279.7" y2="273.3"/>
	<line class="st13" x1="311" y1="253.4" x2="311" y2="273.1"/>
	<line class="st13" x1="374.7" y1="254" x2="374.7" y2="273.3"/>
	<line class="st13" x1="407.9" y1="254.3" x2="407.9" y2="273.3"/>
	<line class="st13" x1="486" y1="253.2" x2="486" y2="273.3"/>
	<line class="st13" x1="342.4" y1="253.8" x2="342.4" y2="273.3"/>
	<line class="st13" x1="462.5" y1="253.3" x2="462.5" y2="273.4"/>
	<line class="st13" x1="435.9" y1="255.1" x2="435.9" y2="273.2"/>
</g>
</svg>
