<?xml version="1.0" encoding="UTF-8" standalone="no"?>
<!-- Created with Inkscape (http://www.inkscape.org/) -->

<svg
   width="92.604164mm"
   height="52.916668mm"
   viewBox="0 0 92.604165 52.916668"
   version="1.1"
   id="svg5"
   sodipodi:docname="logo.svg"
   inkscape:version="1.1.1 (3bf5ae0d25, 2021-09-20)"
   xmlns:inkscape="http://www.inkscape.org/namespaces/inkscape"
   xmlns:sodipodi="http://sodipodi.sourceforge.net/DTD/sodipodi-0.dtd"
   xmlns="http://www.w3.org/2000/svg"
   xmlns:svg="http://www.w3.org/2000/svg">
  <sodipodi:namedview
     id="namedview829"
     pagecolor="#505050"
     bordercolor="#eeeeee"
     borderopacity="1"
     inkscape:pageshadow="0"
     inkscape:pageopacity="0"
     inkscape:pagecheckerboard="0"
     inkscape:document-units="mm"
     showgrid="false"
     inkscape:zoom="1.5063543"
     inkscape:cx="132.10703"
     inkscape:cy="101.90166"
     inkscape:window-width="1920"
     inkscape:window-height="1001"
     inkscape:window-x="-9"
     inkscape:window-y="-9"
     inkscape:window-maximized="1"
     inkscape:current-layer="text3752" />
  <defs
     id="defs2" />
  <g
     id="layer1"
     style="display:inline"
     transform="matrix(0.67846151,0,0,0.65188884,-15.052863,-48.646129)">
    <g
       aria-label="NR"
       id="text3752"
       style="font-size:25.4px;line-height:1.25;font-family:serif;-inkscape-font-specification:'serif, Normal';display:inline;stroke-width:0.264583"
       transform="matrix(4.8267501,0,0,4.8267501,-96.950034,-324.40464)">
      <path
         id="path11271"
         style="stroke-width:4.82674"
         d="m 83.855469,282.04102 v 8.37109 c 2.038673,0.26887 14.930331,4.76532 24.046871,11.3125 4.67591,3.3184 11.46398,10.18217 20.36328,20.58984 v 211.35743 c 10e-6,17.19528 -1.66011,28.20645 -4.97851,33.0332 -5.43009,7.84346 -14.93148,9.34024 -27.828126,11.76562 H 84.824219 v 10.3711 H 191.61523 v -10.3711 h -10.85937 c -11.91604,0 -20.74089,-3.1688 -26.47266,-9.5039 -4.07256,-4.67592 -6.10742,-16.44045 -6.10742,-35.29492 V 346.75 c 66.35481,80.2317 132.51968,162.02687 198.08347,242.0918 h 79.70755 v -10.3711 h -11.99219 c -11.46352,0 -20.0612,-3.32025 -25.79297,-9.95703 -4.22342,-4.67591 -6.33594,-16.66566 -6.33594,-35.97265 V 334.67933 c 0,0 -0.87621,-19.35418 4.98435,-25.91373 7.10482,-7.9522 21.79061,-9.52927 30.53909,-9.52927 19.75951,0 35.59568,6.03272 47.51172,18.09961 12.06689,11.91603 18.10156,27.45321 18.10156,46.60937 0,19.60866 -7.46762,35.74776 -22.40039,48.41797 -14.0615,12.05271 -34.7552,18.30316 -61.91992,18.89063 0,0 -0.24089,7.7368 2,10.51171 3.02709,3.74848 9.37544,2.85346 13.3125,5.63086 2.77032,1.95432 6.875,7.4961 6.875,7.4961 l 96.97461,133.94922 h 81.9043 v -9.84763 c -16.74279,-1.81003 -30.31693,-4.55856 -40.72461,-11.19534 -10.40769,-6.63678 -22.8518,-20.06142 -37.33203,-40.27344 l -63.35157,-88.01172 c 25.79294,-5.73177 44.79791,-15.5352 57.01563,-29.41211 12.36855,-13.8769 18.55273,-30.24315 18.55273,-49.09765 0,-17.64781 -5.42886,-32.80635 -16.28906,-45.47657 -10.70935,-12.82104 -23.83303,-21.57018 -39.36914,-26.24609 -15.38526,-4.82674 -39.36867,-7.24023 -71.94922,-7.24023 h -4.25 -106.79102 -0.72851 v 8.37109 h 0.72851 10.63477 c 0.75418,0 1.49577,0.0124 2.22461,0.0371 0.25458,0.009 0.50437,0.0215 0.75586,0.0332 0.12863,0.006 0.25885,0.0104 0.38672,0.0176 10.03854,0.56387 17.72358,3.85261 23.05469,9.86719 4.22337,4.67591 6.33398,16.66761 6.33398,35.97461 V 512.07812 L 151.11719,282.04102 Z"
         transform="matrix(0.05481604,0,0,0.05481604,20.085986,67.209744)" />
    </g>
  </g>
</svg>
